<?xml version="1.0" encoding="UTF-8"?>
<svg width="1200pt" height="1200pt" version="1.1" viewBox="0 0 1200 1200" xmlns="http://www.w3.org/2000/svg">
 <path d="m1073 955.03-499.03-499.03 139.03-139.03c9.3711-9.3711 9.3711-24.562 0-33.938l-156-156c-9.3594-9.3711-24.574-9.3711-33.938 0l-396 396c-9.3711 9.3711-9.3711 24.562 0 33.938l156 156c9.3594 9.3711 24.574 9.3711 33.938 0l139.03-139.03 499.03 499.03c9.3711 9.3711 24.562 9.3711 33.938 0l84-84c9.3711-9.3711 9.3711-24.566 0-33.938zm-772.97-292.98-122.05-122.05 362.05-362.05 122.06 122.05zm672 360-482.06-482.05 50.062-50.062 482.06 482.06z"/>
</svg>
